<svg xmlns="http://www.w3.org/2000/svg" width="43.031" height="51.063" viewBox="0 0 43.031 51.063">
  <defs>
    <style>
      .cls-1 {
        fill: darkorange;
        fill-rule: evenodd;
      }
    </style>
  </defs>
  <path class="cls-1" d="M299.34,63.73c-0.057,0-.113-0.007-0.17-0.009v0.786a4.6,4.6,0,0,1-4.6,4.565H269.6a4.6,4.6,0,0,1-4.6-4.565V47.272a4.6,4.6,0,0,1,4.6-4.565h24.971a4.6,4.6,0,0,1,4.522,3.78c0.084,0,.166-0.013.25-0.013A8.628,8.628,0,1,1,299.34,63.73Zm-5.134,3.115h-24.47a4.514,4.514,0,0,1-3.625-1.839,4.368,4.368,0,0,0,4.034,2.706h23.649a4.371,4.371,0,0,0,4.034-2.706A4.513,4.513,0,0,1,294.206,66.845Zm5.134-17.1c-0.058,0-.113.015-0.17,0.017V60.442c0.057,0,.112.017,0.17,0.017A5.356,5.356,0,1,0,299.34,49.747Zm-9.2-15.344c-5.806,1.206-7.371-1.791-7.416-3.136-0.105-3.17,1.93-4.207,3.217-6.587,2.352-4.353-3.5-6.986-7-5.809a8.977,8.977,0,0,1,8.028.143,4.273,4.273,0,0,1,2.179,5.078c-0.749,2.229-2.93,3.565-3.814,5.869C284.523,32.054,286.487,34.515,290.137,34.4ZM281,27.107c-0.894,2.659-3.5,4.251-4.551,7-0.958,2.493,1.385,5.428,5.737,5.3-6.924,1.439-8.791-2.136-8.844-3.741-0.125-3.78,2.3-5.018,3.836-7.855,2.805-5.193-4.179-8.332-8.353-6.929,2.481-1.425,6.254-1.421,9.576.169A5.1,5.1,0,0,1,281,27.107Z" transform="translate(-265 -18)"/>
</svg>
